<svg width="1600" height="900" viewBox="0 0 1600 900" fill="none" xmlns="http://www.w3.org/2000/svg">
  <defs>
    <linearGradient id="bg" x1="160" y1="84" x2="1440" y2="816" gradientUnits="userSpaceOnUse">
      <stop stop-color="#0A2239"/>
      <stop offset="0.48" stop-color="#123D5B"/>
      <stop offset="1" stop-color="#1A6C72"/>
    </linearGradient>
    <linearGradient id="panel" x1="260" y1="190" x2="1260" y2="720" gradientUnits="userSpaceOnUse">
      <stop stop-color="#0F2D46" stop-opacity="0.92"/>
      <stop offset="1" stop-color="#0A1D2F" stop-opacity="0.72"/>
    </linearGradient>
    <linearGradient id="good" x1="0" y1="0" x2="1" y2="1">
      <stop stop-color="#68D391"/>
      <stop offset="1" stop-color="#2FBF71"/>
    </linearGradient>
    <linearGradient id="bad" x1="0" y1="0" x2="1" y2="1">
      <stop stop-color="#FFB36B"/>
      <stop offset="1" stop-color="#F56565"/>
    </linearGradient>
    <filter id="shadow" x="0" y="0" width="1600" height="900" filterUnits="userSpaceOnUse" color-interpolation-filters="sRGB">
      <feDropShadow dx="0" dy="18" stdDeviation="22" flood-color="#05131F" flood-opacity="0.38"/>
    </filter>
  </defs>

  <rect width="1600" height="900" fill="url(#bg)"/>

  <g opacity="0.16">
    <path d="M0 102H1600" stroke="#D9F3FF" stroke-width="1"/>
    <path d="M0 246H1600" stroke="#D9F3FF" stroke-width="1"/>
    <path d="M0 390H1600" stroke="#D9F3FF" stroke-width="1"/>
    <path d="M0 534H1600" stroke="#D9F3FF" stroke-width="1"/>
    <path d="M0 678H1600" stroke="#D9F3FF" stroke-width="1"/>
    <path d="M0 822H1600" stroke="#D9F3FF" stroke-width="1"/>
    <path d="M152 0V900" stroke="#D9F3FF" stroke-width="1"/>
    <path d="M408 0V900" stroke="#D9F3FF" stroke-width="1"/>
    <path d="M664 0V900" stroke="#D9F3FF" stroke-width="1"/>
    <path d="M920 0V900" stroke="#D9F3FF" stroke-width="1"/>
    <path d="M1176 0V900" stroke="#D9F3FF" stroke-width="1"/>
    <path d="M1432 0V900" stroke="#D9F3FF" stroke-width="1"/>
  </g>

  <circle cx="1415" cy="126" r="170" fill="#5AD4C5" fill-opacity="0.08"/>
  <circle cx="183" cy="753" r="228" fill="#D8FF80" fill-opacity="0.08"/>

  <g filter="url(#shadow)">
    <rect x="108" y="96" width="1384" height="708" rx="36" fill="url(#panel)" stroke="rgba(217,243,255,0.16)"/>
  </g>

  <rect x="154" y="142" width="234" height="44" rx="22" fill="#D8FF80" fill-opacity="0.18" stroke="#D8FF80" stroke-opacity="0.35"/>
  <text x="184" y="171" fill="#E9FFD3" font-size="24" font-family="Yu Gothic UI, BIZ UDPGothic, Noto Sans JP, sans-serif" font-weight="700" letter-spacing="1.2">AZURE NETWORKING</text>

  <text x="154" y="282" fill="#F5FBFF" font-size="68" font-family="Yu Gothic UI, BIZ UDPGothic, Noto Sans JP, sans-serif" font-weight="800">Private Link +</text>
  <text x="154" y="362" fill="#F5FBFF" font-size="68" font-family="Yu Gothic UI, BIZ UDPGothic, Noto Sans JP, sans-serif" font-weight="800">Private DNS Zone</text>
  <text x="154" y="428" fill="#A8D4E6" font-size="32" font-family="Yu Gothic UI, BIZ UDPGothic, Noto Sans JP, sans-serif" font-weight="600">あるあるトラブルシューティング集</text>

  <text x="154" y="520" fill="#DFF6FF" font-size="24" font-family="Yu Gothic UI, BIZ UDPGothic, Noto Sans JP, sans-serif" font-weight="500">名前解決できない / Public IP に解決される / Hub-Spoke でハマる</text>

  <g>
    <rect x="154" y="584" width="132" height="54" rx="16" fill="#F8FBFD" fill-opacity="0.12"/>
    <text x="185" y="620" fill="#F8FBFD" font-size="26" font-family="Segoe UI, Yu Gothic UI, sans-serif" font-weight="800">7 PATTERNS</text>
  </g>

  <g>
    <rect x="962" y="170" width="428" height="548" rx="28" fill="#081725" fill-opacity="0.58" stroke="#CDEBFF" stroke-opacity="0.16"/>

    <rect x="1020" y="232" width="132" height="46" rx="14" fill="#F8FBFD" fill-opacity="0.12"/>
    <text x="1050" y="263" fill="#E7F7FF" font-size="24" font-family="Segoe UI, Yu Gothic UI, sans-serif" font-weight="700">Client</text>

    <rect x="1202" y="232" width="132" height="46" rx="14" fill="#F8FBFD" fill-opacity="0.12"/>
    <text x="1238" y="263" fill="#E7F7FF" font-size="24" font-family="Segoe UI, Yu Gothic UI, sans-serif" font-weight="700">DNS</text>

    <rect x="1114" y="412" width="132" height="46" rx="14" fill="#F8FBFD" fill-opacity="0.12"/>
    <text x="1142" y="443" fill="#E7F7FF" font-size="24" font-family="Segoe UI, Yu Gothic UI, sans-serif" font-weight="700">Private</text>

    <rect x="1114" y="600" width="132" height="46" rx="14" fill="#F8FBFD" fill-opacity="0.12"/>
    <text x="1138" y="631" fill="#E7F7FF" font-size="24" font-family="Segoe UI, Yu Gothic UI, sans-serif" font-weight="700">Public</text>

    <circle cx="1086" cy="255" r="8" fill="#D7F8FF"/>
    <circle cx="1268" cy="255" r="8" fill="#D7F8FF"/>
    <circle cx="1180" cy="435" r="8" fill="#6EE7B7"/>
    <circle cx="1180" cy="623" r="8" fill="#FF9F7A"/>

    <path d="M1094 255H1260" stroke="#A2D7E8" stroke-width="6" stroke-linecap="round" stroke-dasharray="10 14"/>
    <path d="M1268 263V393H1180" stroke="url(#good)" stroke-width="8" stroke-linecap="round" stroke-linejoin="round"/>
    <path d="M1268 263V581H1180" stroke="url(#bad)" stroke-width="8" stroke-linecap="round" stroke-linejoin="round" opacity="0.95"/>

    <circle cx="1180" cy="435" r="36" fill="#0E2A23" stroke="#68D391" stroke-width="2"/>
    <path d="M1161 435L1174 448L1201 421" stroke="#68D391" stroke-width="8" stroke-linecap="round" stroke-linejoin="round"/>

    <circle cx="1180" cy="623" r="36" fill="#341B1B" stroke="#FF9F7A" stroke-width="2"/>
    <path d="M1163 606L1197 640" stroke="#FF9F7A" stroke-width="8" stroke-linecap="round"/>
    <path d="M1197 606L1163 640" stroke="#FF9F7A" stroke-width="8" stroke-linecap="round"/>

    <text x="1008" y="330" fill="#9FD0E1" font-size="22" font-family="Yu Gothic UI, BIZ UDPGothic, Noto Sans JP, sans-serif" font-weight="600">正しい経路は Private DNS</text>
    <text x="1008" y="358" fill="#9FD0E1" font-size="22" font-family="Yu Gothic UI, BIZ UDPGothic, Noto Sans JP, sans-serif" font-weight="600">誤った経路は Public DNS</text>
  </g>

  <text x="154" y="744" fill="#EAF8FF" fill-opacity="0.72" font-size="20" font-family="Segoe UI, Yu Gothic UI, sans-serif" font-weight="600">tech.saiut.com</text>
</svg>